<svg width="353" height="36" viewBox="0 0 353 36" fill="none" xmlns="http://www.w3.org/2000/svg">
<path d="M9.472 1.64V28.088H22.288L21.328 35H0.592V1.64H9.472ZM50.8769 1.64L49.9649 7.928H38.5889V15.032H48.5249V21.128H38.5889V28.712H50.7329V35H29.7089V1.64H50.8769ZM85.0739 1.64L76.2419 35H64.9139L55.6499 1.64H65.0099L70.7219 28.52L76.0019 1.64H85.0739ZM99.9632 1.64V35H91.0832V1.64H99.9632ZM136.228 0.775997C138.756 0.775997 140.98 1.144 142.9 1.88C144.852 2.616 146.596 3.72 148.132 5.192L144.148 9.896C141.844 8.072 139.428 7.16 136.9 7.16C135.588 7.16 134.58 7.416 133.876 7.928C133.204 8.408 132.868 9.096 132.868 9.992C132.868 10.632 133.044 11.16 133.396 11.576C133.748 11.992 134.34 12.392 135.172 12.776C136.004 13.16 137.316 13.64 139.108 14.216C142.532 15.304 145.028 16.68 146.596 18.344C148.196 19.976 148.996 22.248 148.996 25.16C148.996 27.272 148.452 29.144 147.364 30.776C146.276 32.376 144.692 33.624 142.612 34.52C140.564 35.416 138.148 35.864 135.364 35.864C130.052 35.864 125.716 34.248 122.356 31.016L126.724 26.168C129.38 28.344 132.148 29.432 135.028 29.432C136.532 29.432 137.7 29.112 138.532 28.472C139.364 27.8 139.78 26.92 139.78 25.832C139.78 25.064 139.62 24.44 139.3 23.96C138.98 23.448 138.404 23 137.572 22.616C136.772 22.2 135.588 21.752 134.02 21.272C130.244 20.088 127.588 18.664 126.052 17C124.516 15.336 123.748 13.24 123.748 10.712C123.748 8.728 124.276 6.984 125.332 5.48C126.42 3.976 127.908 2.824 129.796 2.024C131.716 1.192 133.86 0.775997 136.228 0.775997ZM178.039 1.64L177.127 7.928H165.751V15.032H175.687V21.128H165.751V28.712H177.895V35H156.871V1.64H178.039ZM197.644 22.712H195.196V35H186.316V1.64H197.884C202.588 1.64 206.092 2.488 208.396 4.184C210.732 5.88 211.9 8.488 211.9 12.008C211.9 14.12 211.404 15.88 210.412 17.288C209.452 18.696 207.9 19.96 205.756 21.08L214.06 35H204.172L197.644 22.712ZM195.196 16.664H198.172C201.244 16.664 202.78 15.112 202.78 12.008C202.78 10.568 202.348 9.512 201.484 8.84C200.652 8.168 199.388 7.832 197.692 7.832H195.196V16.664ZM231.73 22.712H229.282V35H220.402V1.64H231.97C236.674 1.64 240.178 2.488 242.482 4.184C244.818 5.88 245.986 8.488 245.986 12.008C245.986 14.12 245.49 15.88 244.498 17.288C243.538 18.696 241.986 19.96 239.842 21.08L248.146 35H238.258L231.73 22.712ZM229.282 16.664H232.258C235.33 16.664 236.866 15.112 236.866 12.008C236.866 10.568 236.434 9.512 235.57 8.84C234.738 8.168 233.474 7.832 231.778 7.832H229.282V16.664ZM272.008 35L270.52 28.184H261.688L260.2 35H250.984L260.872 1.64H271.528L281.416 35H272.008ZM263.08 21.848H269.128L266.104 7.976L263.08 21.848ZM313.753 35H302.569L294.121 9.896L294.265 10.904C294.585 13.112 294.825 15.192 294.985 17.144C295.177 19.064 295.273 21.256 295.273 23.72V35H287.401V1.64H298.345L307.081 26.84C306.697 24.44 306.393 22.28 306.169 20.36C305.977 18.44 305.881 16.232 305.881 13.736V1.64H313.753V35ZM337.236 0.775997C342.068 0.775997 345.828 2.312 348.516 5.384C351.204 8.456 352.548 12.76 352.548 18.296C352.548 21.912 351.94 25.048 350.724 27.704C349.54 30.328 347.796 32.344 345.492 33.752C343.188 35.16 340.436 35.864 337.236 35.864C332.404 35.864 328.644 34.328 325.956 31.256C323.3 28.184 321.972 23.864 321.972 18.296C321.972 14.68 322.564 11.56 323.748 8.936C324.964 6.312 326.708 4.296 328.98 2.888C331.284 1.48 334.036 0.775997 337.236 0.775997ZM337.236 7.16C335.156 7.16 333.62 8.024 332.628 9.752C331.668 11.48 331.188 14.328 331.188 18.296C331.188 22.264 331.684 25.128 332.676 26.888C333.668 28.616 335.188 29.48 337.236 29.48C339.348 29.48 340.884 28.616 341.844 26.888C342.804 25.16 343.284 22.296 343.284 18.296C343.284 14.328 342.804 11.48 341.844 9.752C340.884 8.024 339.348 7.16 337.236 7.16Z" fill="black"/>
</svg>
